<svg width="923" height="307" viewBox="0 0 923 307" fill="none" xmlns="http://www.w3.org/2000/svg">
<path fill-rule="evenodd" clip-rule="evenodd" d="M832.337 171.483C833.623 193.799 839.171 209.22 839.857 222.052C840.458 232.914 836.454 243.636 828.133 251.008C815.236 262.462 807.115 260.858 792.217 257.621C766.109 251.937 737.542 242.397 718.84 230.269C707.888 223.149 694.791 210.317 707.201 197.935C713.521 191.604 722.529 193.686 728.191 190C731.737 187.664 730.793 184.512 730.793 182.486V125.248C730.793 123.222 731.737 120.07 728.191 117.735C722.557 114.02 713.521 116.131 707.201 109.799C694.819 97.3891 707.888 84.5852 718.84 77.4656C737.542 65.337 766.109 55.7974 792.217 50.113C807.086 46.8768 815.236 45.2728 828.133 56.726C836.426 64.0989 840.458 74.8204 839.857 85.6827C839.171 98.2052 833.881 113.176 832.422 134.647C831.65 145.932 831.679 160.227 832.337 171.568M324.018 8.80267L766.881 8.80267C847.95 8.80267 914.263 74.0606 914.263 153.839C914.263 233.618 847.921 298.875 766.881 298.875H156.246C75.206 298.875 8.86377 233.618 8.86377 153.839C8.86377 74.0606 75.1774 8.80267 156.246 8.80267L324.018 8.80267ZM159.163 50.3944C194.679 50.3944 226.077 67.729 245.122 94.2655C246.18 95.757 247.238 97.9519 246.295 100.935C241.147 117.228 238.288 135.097 238.288 153.811C238.288 172.524 241.147 190.309 246.266 206.574C247.181 209.529 246.209 211.865 245.208 213.272C226.163 239.865 194.736 257.256 159.192 257.256C101.142 257.256 54.0737 210.936 54.0737 153.811C54.0737 96.6856 101.085 50.3944 159.163 50.3944Z" fill="#7E4312"/>
<path fill-rule="evenodd" clip-rule="evenodd" d="M844.461 221.826C845.118 234.011 840.515 246.14 831.221 254.385C817.381 266.654 808.201 265.754 791.244 262.039C766.766 256.693 737.198 247.603 716.323 234.039C702.769 225.231 689.128 209.585 703.941 194.755C707.659 191.041 712.291 190.45 717.067 188.536C725.216 185.3 725.216 122.378 717.067 119.17C712.291 117.284 707.659 116.665 703.941 112.951C689.128 98.1206 702.797 82.4463 716.323 73.6665C737.198 60.1028 766.766 51.0134 791.244 45.6666C808.23 41.9802 817.381 41.0516 831.221 53.3209C840.515 61.5661 845.118 73.6665 844.461 85.8795C842.802 116.131 839.028 133.493 838.942 150.772C838.856 169.766 842.631 188.536 844.461 221.855M159.163 45.8636C194.965 45.8636 228.279 62.9449 248.868 91.6483C251.155 94.8563 251.184 98.3739 250.669 102.285C246.351 135.154 245.808 172.355 250.641 205.252C251.184 209.051 251.213 212.765 248.954 215.889C228.365 244.677 195.022 261.786 159.163 261.786C98.5683 261.786 49.4408 213.441 49.4408 153.811C49.4408 94.1809 98.5683 45.8636 159.163 45.8636ZM766.88 13.3332L156.246 13.3332C77.722 13.3332 13.4673 76.565 13.4673 153.839C13.4673 231.113 77.7506 294.345 156.246 294.345H766.88C845.404 294.345 909.659 231.113 909.659 153.839C909.659 76.565 845.404 13.3332 766.88 13.3332Z" fill="#E7561A"/>
<path d="M327.478 265.388H312.98V207.587H305.23V265.388H290.732V195.543H327.449V265.388H327.478ZM368.685 265.388H355.559V236.206L347.924 265.388H333.34V195.543H347.924V223.571L355.159 195.543H368.685V265.388ZM388.644 207.784V226.076H395.307C395.822 226.076 396.251 225.935 396.565 225.654C396.88 225.372 397.052 224.894 397.052 224.247V209.107C397.052 208.206 396.623 207.756 395.793 207.756H388.644V207.784ZM397.252 238.711C397.252 237.951 397.052 237.416 396.651 237.107C396.251 236.825 395.736 236.685 395.078 236.685H388.616V253.147H395.765C396.337 253.147 396.737 253.034 396.937 252.809C397.137 252.584 397.223 252.218 397.223 251.712V238.711H397.252ZM410.663 223.205C410.663 224.95 410.32 226.442 409.634 227.68C408.947 228.918 407.661 229.818 405.773 230.325C407.718 230.466 409.148 231.141 410.034 232.351C410.92 233.561 411.349 234.968 411.349 236.488V254.61C411.349 258.465 410.52 261.223 408.89 262.884C407.26 264.544 404.372 265.388 400.283 265.388H374.547V195.543H402.256C405.058 195.543 407.174 196.303 408.576 197.851C409.977 199.398 410.692 201.453 410.692 204.014V223.177L410.663 223.205ZM430.823 256.721L429.565 265.388H415.267L428.078 195.543H443.262L456.102 265.388H441.804L440.517 256.721H430.823ZM290.732 173.847H294.05L300.855 131.861C301.084 130.398 301.399 128.963 301.742 127.528C302.085 126.092 302.628 124.77 303.4 123.588C304.172 122.406 305.259 121.449 306.66 120.689C308.061 119.93 310.006 119.564 312.437 119.564H330.824V173.847H333.397V185.159H290.732V173.847ZM317.384 131.777C316.469 131.777 315.725 131.889 315.182 132.086C314.638 132.311 314.21 132.677 313.895 133.212C313.58 133.747 313.352 134.478 313.152 135.379C312.98 136.279 312.723 137.461 312.522 138.896L307.375 173.819H317.298L317.384 131.749V131.777ZM353.043 131.045C352.242 131.045 351.842 131.467 351.842 132.311V172.299C351.842 172.778 351.927 173.115 352.07 173.34C352.213 173.537 352.585 173.65 353.128 173.65H358.19C358.733 173.65 359.105 173.537 359.248 173.34C359.391 173.115 359.477 172.778 359.477 172.299V132.311C359.477 131.467 359.076 131.045 358.276 131.045H353.043ZM373.002 175.817C373.002 177.083 372.86 178.265 372.545 179.391C372.23 180.516 371.716 181.473 370.972 182.317C370.229 183.161 369.256 183.837 368.027 184.343C366.797 184.85 365.282 185.103 363.423 185.103H347.981C346.151 185.103 344.607 184.85 343.377 184.343C342.148 183.837 341.175 183.161 340.432 182.317C339.688 181.473 339.174 180.488 338.859 179.391C338.545 178.265 338.402 177.083 338.402 175.817V128.062C338.402 125.473 339.116 123.391 340.546 121.871C341.976 120.324 344.264 119.564 347.409 119.564H363.966C367.083 119.564 369.371 120.324 370.801 121.871C372.23 123.419 372.974 125.473 372.974 128.062V175.817H373.002ZM391.475 154.205V185.131H378.521V119.536H392.591L399.854 147.226L407.117 119.536H421.272V185.131H408.318V154.205L399.854 180.432L391.475 154.205ZM439.545 176.999L438.344 185.131H424.932L436.971 119.536H451.212L463.251 185.131H449.839L448.638 176.999H439.545ZM441.003 166.587H447.151L444.12 143.343L441.003 166.587ZM522.272 185.131H466.94V119.536H480.551V173.819H487.815V119.536H501.426V173.819H508.689V119.536H522.301V185.131H522.272ZM562.249 185.131H548.638V158.904H541.374V185.131H527.763V119.536H541.374V147.592H548.638V119.536H562.249V185.131ZM567.768 119.536H595.992V131.749H581.466V147.31H592.504V158.623H581.466V172.918H595.449V185.131H567.768V119.536ZM600.596 119.536H628.82V131.749H614.294V185.131H600.596V119.536ZM647.579 131.017C646.778 131.017 646.378 131.439 646.378 132.283V172.271C646.378 172.749 646.464 173.087 646.607 173.312C646.75 173.509 647.122 173.622 647.665 173.622H652.726C653.27 173.622 653.641 173.509 653.784 173.312C653.927 173.087 654.013 172.749 654.013 172.271V132.283C654.013 131.439 653.613 131.017 652.812 131.017H647.579ZM667.539 175.789C667.539 177.055 667.396 178.237 667.082 179.362C666.767 180.488 666.252 181.473 665.509 182.289C664.765 183.133 663.793 183.809 662.563 184.315C661.334 184.822 659.818 185.075 657.959 185.075H642.518C640.688 185.075 639.143 184.822 637.914 184.315C636.684 183.809 635.712 183.133 634.968 182.289C634.225 181.445 633.71 180.46 633.396 179.362C633.081 178.237 632.938 177.055 632.938 175.789V128.034C632.938 125.445 633.653 123.363 635.083 121.843C636.513 120.295 638.8 119.536 641.946 119.536H658.503C661.62 119.536 663.907 120.295 665.366 121.843C666.796 123.391 667.539 125.445 667.539 128.034V175.789ZM327.106 39.3069V42.2054H340.918C343.72 42.2054 345.836 42.9652 347.238 44.513C348.639 46.0607 349.354 48.1149 349.354 50.6757V92.774C349.354 94.1247 349.211 95.3629 348.925 96.4885C348.639 97.6142 348.096 98.5991 347.295 99.4152C346.523 100.259 345.465 100.907 344.149 101.385C342.834 101.863 341.204 102.117 339.259 102.117H327.106V109.152H313.009V102.117H300.855C298.911 102.117 297.252 101.863 295.965 101.385C294.65 100.907 293.621 100.231 292.82 99.4152C292.048 98.5709 291.505 97.586 291.219 96.4885C290.933 95.3629 290.79 94.1247 290.79 92.774V50.6757C290.79 48.1149 291.504 46.0607 292.906 44.513C294.307 42.9652 296.423 42.2054 299.225 42.2054H313.037V39.3069H327.135H327.106ZM305.86 54.4184C305.03 54.4184 304.573 54.8687 304.573 55.7692V89.1157C304.573 89.6222 304.659 89.9881 304.83 90.2132C305.002 90.4383 305.373 90.5509 305.945 90.5509H312.98V54.4184H305.831H305.86ZM327.106 54.4184V90.5509H334.169C334.77 90.5509 335.142 90.4383 335.285 90.2132C335.456 89.9881 335.542 89.6222 335.542 89.1157V55.7692C335.542 54.8687 335.113 54.4184 334.255 54.4184H327.106ZM354.901 39.3069H384.956V52.3079H369.485V68.8827H381.238V80.9268H369.485V96.1509H384.355V109.152H354.901V39.3069ZM400.912 109.152C396.794 109.152 393.935 108.308 392.305 106.647C390.675 104.987 389.845 102.229 389.845 98.3458V47.8617C389.845 45.1039 390.646 42.9652 392.247 41.5019C393.849 40.0105 395.822 39.2788 398.167 39.2788L419.299 39.2788V52.2797H405.687C404.83 52.2797 404.401 52.73 404.401 53.6305V94.772C404.401 95.6725 404.83 96.1227 405.687 96.1227H419.299V109.124H400.883L400.912 109.152ZM455.73 39.3069V52.3079L446.236 52.3079V109.152H431.738V52.3079H422.244V39.3069H455.73ZM494.992 109.152H481.867V79.97L474.232 109.152H459.648V39.3069H474.232V67.3349L481.466 39.3069H494.963V109.152H494.992ZM514.952 51.5481V69.8394H521.615C522.129 69.8394 522.558 69.6987 522.902 69.4173C523.216 69.1359 523.388 68.6575 523.388 68.0103V52.8988C523.388 51.9983 522.959 51.5481 522.129 51.5481H514.981H514.952ZM523.559 82.4745C523.559 81.7148 523.359 81.1801 522.959 80.8705C522.558 80.5891 522.044 80.4484 521.386 80.4484H514.923V96.9106H522.072C522.673 96.9106 523.045 96.7981 523.245 96.573C523.445 96.3478 523.531 95.982 523.531 95.4755V82.4745H523.559ZM536.971 66.9691C536.971 68.6857 536.628 70.2053 535.941 71.4435C535.255 72.7098 533.968 73.5821 532.081 74.0887C534.025 74.2294 535.455 74.8766 536.342 76.1148C537.228 77.3248 537.657 78.7318 537.657 80.2514V98.374C537.657 102.229 536.828 104.987 535.198 106.675C533.568 108.336 530.708 109.18 526.59 109.18H500.854V39.3069H528.564C531.366 39.3069 533.482 40.0667 534.883 41.6145C536.284 43.1622 536.999 45.2165 536.999 47.7773V66.941L536.971 66.9691ZM557.131 100.485L555.844 109.152L541.546 109.152L554.386 39.3069H569.57L582.409 109.152H568.112L566.825 100.485H557.131ZM558.703 89.3971H565.252L562.021 64.6334L558.703 89.3971ZM611.091 52.3079C610.119 52.3079 609.318 52.4204 608.746 52.6456C608.146 52.8707 607.688 53.2647 607.374 53.8556C607.059 54.4184 606.773 55.2064 606.601 56.1631C606.401 57.1199 606.144 58.3862 605.915 59.934L600.053 100.203L598.795 109.152H584.411L593.505 52.4204C593.762 50.8727 594.076 49.325 594.448 47.8054C594.791 46.2577 595.392 44.8788 596.221 43.6125C597.05 42.3461 598.194 41.3331 599.681 40.517C601.197 39.7291 603.227 39.3069 605.858 39.3069H625.446V109.152H611.062L611.148 52.3079H611.091ZM631.251 109.152V39.3069H645.349V69.1641H657.502C659.446 69.1641 661.105 69.4173 662.392 69.8957C663.707 70.3741 664.737 71.0495 665.537 71.8656C666.309 72.7098 666.853 73.6947 667.139 74.7922C667.425 75.9178 667.568 77.156 667.568 78.5067V100.653C667.568 103.214 666.853 105.268 665.452 106.816C664.05 108.364 661.934 109.124 659.132 109.124H631.222L631.251 109.152ZM652.498 96.9106C653.355 96.9106 653.756 96.4604 653.756 95.5599V82.6434C653.756 82.1369 653.67 81.771 653.499 81.5459C653.327 81.3208 652.955 81.2082 652.383 81.2082H645.32V96.9106H652.469H652.498ZM432.425 245.633H438.973L435.742 220.87L432.425 245.633Z" fill="#EAE0B6"/>
<path fill-rule="evenodd" clip-rule="evenodd" d="M486.356 235.953C486.871 231.816 486.042 233.336 487.243 229.34L488.015 226.948C488.444 228.271 488.129 228.524 489.216 229.087C490.731 227.398 488.873 228.299 490.445 225.203L490.731 224.753C490.874 225.963 491.074 226.104 491.246 226.976C491.503 228.58 490.703 228.046 491.961 229.143C493.019 228.046 492.504 228.158 493.048 226.892C494.42 229.678 494.163 232.773 494.506 236.066L498.681 236.206C498.681 231.535 498.138 232.998 500.683 230.072C502.913 233.364 502.57 231.169 502.599 236.038C503.599 236.432 503.256 236.122 504.171 236.713C504.915 237.191 504.228 237.191 505.429 237.332C505.429 235.334 504.886 233.139 507.288 233.505C507.374 233.505 507.488 233.561 507.574 233.589C507.66 233.589 507.774 233.646 507.832 233.674C507.889 233.674 508.003 233.73 508.089 233.73C508.661 231.957 507.717 231.985 509.347 230.635C509.633 227.004 509.633 227.258 512.178 225.063C512.292 223.149 512.007 223.515 513.007 221.883C514.123 223.374 513.779 223.065 513.951 224.922C514.78 225.823 515.953 226.385 516.382 227.539C516.753 228.468 516.525 229.002 516.696 229.79C517.325 232.773 517.754 228.074 517.754 233.786L518.812 232.914L520.642 234.631C522.587 230.663 533.31 208.826 533.482 206.462C531.023 204.999 532.31 205.393 529.421 204.914C527.563 201.509 528.421 204.154 527.277 201.931C528.792 202.41 529.764 203.366 531.223 204.211C532.681 203.845 532.853 203.141 534.34 204.464C534.254 205.618 534.511 204.858 533.482 205.674C536.427 207.559 538.257 207.503 541.832 208.15C543.605 208.488 549.124 209.839 550.411 209.501C545.835 206.546 548.066 210.176 545.893 206.715C545.464 206.04 545.349 206.237 544.72 205.308C546.436 205.955 548.352 207.419 549.953 208.488C554.671 211.668 553.07 209.67 555.644 210.908C555.615 212.85 553.356 216.03 552.47 217.971C549.295 224.95 546.178 233.955 544.491 241.3L548.094 240.906C548.266 239.499 547.837 239.302 548.609 238.261L548.752 241.018C551.983 242.876 550.725 240.765 553.242 241.412C553.871 241.581 555.644 242.228 556.101 242.538L556.559 242.088L556.616 241.159L557.703 240.765C558.789 238.345 558.046 238.148 558.303 235.7C558.446 234.49 559.018 234.743 559.275 233.533L559.962 220.054L560.705 233.336L561.849 235.7C562.078 238.43 561.277 238.486 562.535 241.244L567.311 241.328C567.683 239.668 567.168 239.386 567.883 237.839C568.426 236.629 568.512 236.066 568.741 234.687C569.227 235.531 569.169 236.572 569.684 237.557C570.628 239.414 570.313 239.189 570.313 241.356L571.457 240.259C577.491 242.96 573.888 241.018 576.948 241.609C578.177 241.835 577.977 241.863 579.35 241.806C580.98 241.075 582.295 237.754 582.467 235.306C582.638 235.728 583.439 238.655 583.639 239.499C585.297 240.428 584.783 240.034 586.07 241.3H587.785C587.585 237.36 580.007 218.956 577.519 213.722C576.433 211.415 573.745 207.025 573.287 204.886L575.689 203.254C576.719 203.76 575.889 203.226 576.776 204.267C578.52 202.944 585.698 196.978 587.07 196.697L585.898 198.16C588.786 201.453 585.355 199.736 583.725 199.511C584.954 200.806 585.097 199.68 585.126 201.284C583.725 202.185 583.41 201.594 582.009 201.059C580.522 202.156 578.406 203.366 577.662 204.83L591.188 207.756L595.134 204.886C594.076 204.182 594.42 204.802 594.019 203.507C595.592 202.55 595.449 203.029 597.136 203.451C598.337 202.607 599.796 201.228 601.197 200.89C600.367 202.578 595.049 205.618 593.219 207.194C594.248 207.644 593.562 207.419 595.22 207.194L593.876 208.291L608.746 234.377C609.461 229.875 608.546 231.535 611.262 228.693C612.378 227.539 611.52 227.989 612.32 227.004C613.093 228.046 612.206 227.539 613.379 228.693C613.865 229.171 614.465 229.509 614.923 230.1C616.267 231.873 615.38 233.308 616.067 234.856C617.754 235.475 615.981 234.631 617.668 234.631L617.839 238.823C618.869 238.626 618.125 239.583 619.012 238.148C619.698 237.051 619.384 233.899 619.298 232.633C615.981 233.055 615.752 230.212 619.298 230.438C619.412 229.115 619.184 229.509 619.727 228.58L620.156 230.466L621.843 231.057C621.414 233.983 620.413 231.62 620.07 233.364C620.07 234.94 619.612 237.895 620.47 238.992L620.813 236.797L625.217 236.094C626.275 234.349 625.846 232.858 627.905 231.563C628.02 229.509 628.248 227.849 628.306 225.71C628.363 222.868 629.592 223.853 629.221 220.335C629.02 218.59 628.163 217.268 629.678 215.861C631.565 214.116 631.708 214.397 631.994 211.583C632.681 212.596 632.28 213.3 633.253 214.594C634.139 215.776 634.682 215.608 635.426 216.986C635.54 218.816 634.682 221.011 635.083 222.727C635.397 224.078 635.712 222.98 635.883 224.613C636.026 225.823 635.798 226.47 636.055 227.792H637.285C637.027 225.4 636.598 220.307 637.37 218.337C637.828 217.183 637.857 216.002 637.828 214.735C641.46 211.583 638.857 212.906 640.916 209.754C639.058 203.395 641.116 208.178 641.545 203.535C641.746 203.817 641.66 203.62 641.917 204.267C643.49 207.841 643.604 204.858 642.632 208.882C642.289 210.289 642.775 209.782 643.204 210.936C643.461 211.612 643.49 212.653 644.033 213.469C645.034 214.988 645.005 213.441 645.52 215.129C646.149 219.378 646.349 218.168 646.235 220.954C646.121 223.149 646.206 225.541 646.149 227.764L648.551 227.821C648.694 225.823 647.665 224.106 648.78 222.615C650.61 220.223 650.496 221.967 650.982 218.225C651.325 219.125 651.182 219.913 651.84 221.039C652.469 222.108 653.069 222.164 653.87 223.459C654.07 226.385 652.126 230.832 655.243 232.604C654.556 236.038 653.813 234.912 656.358 237.867L666.138 242.904H474.432C474.432 238.908 482.867 235.925 486.528 235.841" fill="white"/>
<path d="M666.051 255.736H666.166L665.908 259.704H664.621L664.193 257.283L661.991 257.368H659.703V263.925L661.076 264.122L660.99 265.275H656.071L655.986 264.122L657.358 263.925V257.199L655.986 257.002L656.071 255.848H662.963L666.051 255.736ZM646.063 263.587C646.921 263.896 647.864 264.065 648.951 264.065C650.152 264.065 651.067 263.784 651.696 263.221C652.325 262.658 652.668 261.758 652.668 260.576C652.668 259.394 652.354 258.494 651.753 257.931C651.153 257.368 650.324 257.086 649.323 257.086C648.608 257.086 647.979 257.171 647.464 257.34C646.949 257.509 646.492 257.79 646.063 258.156V263.615V263.587ZM645.462 256.777C646.034 256.299 646.635 255.961 647.292 255.764C647.922 255.567 648.665 255.454 649.523 255.454C650.667 255.454 651.639 255.679 652.468 256.102C653.298 256.524 653.927 257.115 654.384 257.903C654.813 258.662 655.042 259.563 655.042 260.548C655.042 261.533 654.813 262.377 654.356 263.137C653.898 263.925 653.212 264.516 652.325 264.966C651.439 265.416 650.352 265.641 649.123 265.641C648.007 265.641 647.006 265.444 646.12 265.05V267.076L647.493 267.273L647.407 268.427H642.546L642.46 267.273L643.832 267.076V257.227L642.574 257.143L642.488 255.989L645.033 255.736L645.548 256.777H645.462ZM633.452 257.002L631.908 257.255L635.196 263.306H635.397L638.228 257.255L636.769 257.002L636.855 255.848H641.516L641.602 257.002L640.401 257.255L635.997 266.007C635.625 266.795 635.139 267.358 634.539 267.752C633.967 268.146 633.252 268.315 632.451 268.315C631.908 268.315 631.422 268.23 631.05 268.089C630.65 267.921 630.307 267.695 629.992 267.33L630.707 266.091C631.25 266.345 631.736 266.457 632.137 266.457C632.68 266.457 633.138 266.345 633.481 266.148C633.824 265.951 634.11 265.641 634.31 265.219L634.567 264.713L633.252 264.375L629.106 257.312L627.619 256.974L627.704 255.82H633.309L633.395 256.974L633.452 257.002ZM618.211 260.801C618.211 261.364 618.325 261.87 618.554 262.377C618.782 262.855 619.154 263.277 619.697 263.587C620.212 263.896 620.87 264.065 621.671 264.065C622.872 264.065 623.758 263.756 624.33 263.109C624.902 262.461 625.188 261.702 625.188 260.801C625.188 259.901 624.931 259.113 624.416 258.494C623.901 257.846 623.043 257.537 621.871 257.537C621.07 257.537 620.384 257.706 619.84 258.015C619.297 258.325 618.868 258.747 618.611 259.253C618.354 259.76 618.211 260.266 618.211 260.801ZM627.704 252.303C627.361 253.062 626.818 253.653 626.046 254.019C625.274 254.385 624.387 254.582 623.386 254.582H620.756C619.783 254.582 619.04 254.863 618.525 255.454C617.982 256.017 617.667 256.861 617.553 257.931H617.667C618.125 257.312 618.697 256.833 619.412 256.496C620.126 256.158 620.956 255.989 621.842 255.989C623.186 255.989 624.273 256.214 625.131 256.664C625.989 257.115 626.589 257.706 626.961 258.437C627.333 259.169 627.504 259.957 627.504 260.801C627.504 261.617 627.304 262.377 626.875 263.109C626.446 263.84 625.788 264.459 624.902 264.91C624.015 265.388 622.929 265.613 621.642 265.613C619.612 265.613 618.096 265.05 617.095 263.896C616.094 262.743 615.58 261.195 615.58 259.225C615.58 257.874 615.809 256.721 616.237 255.708C616.666 254.695 617.324 253.935 618.182 253.4C619.04 252.865 620.069 252.584 621.299 252.584H622.929C623.787 252.584 624.53 252.5 625.131 252.359C625.731 252.218 626.332 251.937 626.904 251.571L627.676 252.303H627.704ZM605.514 263.559C606.372 263.868 607.316 264.037 608.402 264.037C609.603 264.037 610.518 263.756 611.147 263.193C611.805 262.63 612.12 261.73 612.12 260.548C612.12 259.366 611.805 258.465 611.205 257.903C610.604 257.34 609.775 257.058 608.774 257.058C608.059 257.058 607.43 257.143 606.915 257.312C606.4 257.48 605.943 257.762 605.514 258.128V263.587V263.559ZM604.913 256.749C605.485 256.27 606.086 255.933 606.744 255.736C607.373 255.539 608.116 255.426 608.974 255.426C610.118 255.426 611.09 255.651 611.919 256.073C612.749 256.496 613.378 257.086 613.835 257.874C614.264 258.634 614.493 259.535 614.493 260.52C614.493 261.505 614.264 262.349 613.807 263.109C613.349 263.896 612.663 264.487 611.777 264.938C610.89 265.388 609.803 265.613 608.574 265.613C607.459 265.613 606.458 265.416 605.571 265.022V267.048L606.944 267.245L606.858 268.399H601.997L601.911 267.245L603.284 267.048V257.199L602.025 257.115L601.94 255.961L604.485 255.708L604.999 256.749H604.913ZM598.708 259.816C598.651 258.831 598.365 258.1 597.793 257.621C597.25 257.143 596.506 256.918 595.534 256.918C594.476 256.918 593.647 257.171 593.046 257.649C592.446 258.128 592.074 258.859 591.931 259.788H598.708V259.816ZM591.931 261.167C592.045 262.124 592.389 262.855 592.96 263.334C593.561 263.84 594.362 264.065 595.391 264.065C596.278 264.065 597.021 263.981 597.564 263.84C598.108 263.671 598.708 263.39 599.309 262.968L600.138 264.319C599.452 264.797 598.765 265.107 598.022 265.304C597.278 265.501 596.421 265.585 595.363 265.585C594.161 265.585 593.103 265.36 592.217 264.91C591.33 264.459 590.673 263.84 590.215 263.08C589.758 262.292 589.529 261.448 589.529 260.491C589.529 259.535 589.758 258.662 590.244 257.903C590.73 257.115 591.416 256.524 592.303 256.073C593.218 255.623 594.276 255.398 595.505 255.398C597.221 255.398 598.565 255.848 599.537 256.749C600.51 257.649 600.996 258.859 600.996 260.407C600.996 260.745 600.967 261.026 600.91 261.251L600.796 261.364H595.877L591.902 261.167H591.931ZM577.319 255.708L580.721 255.792H584.496L588.614 255.708L588.728 255.792V259.872L587.584 259.957L586.927 257.227L584.124 257.312V263.896L585.497 264.093L585.411 265.247H580.493L580.407 264.093L581.78 263.896V257.312L579.034 257.227L578.176 259.929L577.004 259.844L577.233 255.82L577.319 255.708ZM573.63 259.816C573.573 258.831 573.287 258.1 572.715 257.621C572.171 257.143 571.399 256.918 570.456 256.918C569.398 256.918 568.568 257.171 567.968 257.649C567.367 258.128 566.995 258.859 566.853 259.788H573.63V259.816ZM566.853 261.167C566.967 262.124 567.31 262.855 567.882 263.334C568.482 263.84 569.283 264.065 570.313 264.065C571.199 264.065 571.943 263.981 572.486 263.84C573.029 263.671 573.63 263.39 574.23 262.968L575.059 264.319C574.373 264.797 573.687 265.107 572.943 265.304C572.2 265.501 571.342 265.585 570.284 265.585C569.083 265.585 568.025 265.36 567.138 264.91C566.252 264.459 565.594 263.84 565.137 263.08C564.679 262.292 564.45 261.448 564.45 260.491C564.45 259.535 564.679 258.662 565.165 257.903C565.651 257.115 566.338 256.524 567.224 256.073C568.139 255.623 569.197 255.398 570.427 255.398C572.143 255.398 573.487 255.848 574.459 256.749C575.431 257.649 575.917 258.859 575.917 260.407C575.917 260.745 575.889 261.026 575.832 261.251L575.717 261.364H570.799L566.824 261.167H566.853ZM563.278 254.892L561.391 255.257V263.671L563.278 264.037L563.192 265.219H557.302L557.216 264.037L559.103 263.671V255.342H552.326V263.671L554.185 264.037L554.099 265.219H548.208L548.122 264.037L549.981 263.671V255.257L548.122 254.892L548.208 253.71H563.221L563.307 254.892H563.278ZM540.058 259.281L546.75 259.422L546.664 260.942H540.058V259.281ZM527.476 255.708L530.879 255.792H534.654L538.771 255.708L538.886 255.792V259.872L537.742 259.957L537.084 257.227L534.282 257.312V263.896L535.655 264.093L535.569 265.247H530.65L530.564 264.093L531.937 263.896V257.312L529.192 257.227L528.334 259.929L527.162 259.844L527.39 255.82L527.476 255.708ZM519.069 256.974L517.696 257.143V259.507C518.182 259.507 518.669 259.45 519.126 259.366C519.612 259.281 520.013 259.169 520.356 259C520.585 258.803 520.728 258.634 520.842 258.465C520.956 258.297 521.099 258.071 521.214 257.79C521.442 257.368 521.557 257.115 521.614 257.03C521.9 256.552 522.243 256.214 522.615 256.017C522.987 255.82 523.53 255.708 524.216 255.708C525.503 255.708 526.132 256.186 526.132 257.171C526.132 257.509 526.018 257.79 525.789 258.043C525.56 258.268 525.246 258.409 524.845 258.409C524.588 258.409 524.331 258.325 524.102 258.128C523.873 257.931 523.73 257.677 523.73 257.368C523.53 257.368 523.358 257.424 523.244 257.537C523.13 257.649 523.015 257.818 522.901 258.043C522.643 258.606 522.357 259.056 522.1 259.338C521.843 259.647 521.471 259.901 520.985 260.126V260.238C521.442 260.266 521.843 260.463 522.157 260.801C522.472 261.139 522.844 261.617 523.215 262.208C523.902 263.306 524.645 263.868 525.446 263.925L526.532 263.981L526.618 265.078C526.361 265.191 526.104 265.275 525.846 265.304C525.589 265.36 525.274 265.36 524.903 265.36C523.816 265.36 522.872 264.966 522.157 264.178C521.843 263.868 521.442 263.306 520.899 262.518C520.613 262.067 520.413 261.758 520.241 261.589C520.041 261.364 519.87 261.223 519.698 261.111C519.526 260.998 519.269 260.942 518.983 260.914C518.697 260.885 518.24 260.857 517.668 260.829V263.896L519.04 264.093L518.955 265.247H514.093L514.008 264.093L515.38 263.896V257.143L514.008 256.974L514.093 255.82H518.955L519.04 256.974H519.069ZM505.143 256.974L503.77 257.171V259.507H509.318V257.171L507.945 256.974L508.031 255.82H512.892L512.978 256.974L511.605 257.171V263.896L512.978 264.093L512.892 265.247H508.031L507.945 264.093L509.318 263.896V260.998H503.77V263.896L505.143 264.093L505.057 265.247H500.167L500.081 264.093L501.454 263.896V257.171L500.081 256.974L500.167 255.82H505.057L505.143 256.974ZM495.163 260.435C493.647 260.435 492.361 260.52 491.302 260.688C490.616 260.801 490.101 260.97 489.815 261.251C489.501 261.533 489.358 261.927 489.358 262.461C489.358 262.94 489.558 263.334 489.93 263.615C490.33 263.925 490.902 264.065 491.674 264.065C492.99 264.065 494.162 263.784 495.134 263.249V260.435H495.163ZM487.985 256.467C489.358 255.792 490.931 255.454 492.704 255.454C494.305 255.454 495.506 255.764 496.307 256.355C497.107 256.974 497.508 257.79 497.508 258.859V263.334C497.508 263.531 497.565 263.7 497.651 263.812C497.765 263.925 497.908 264.009 498.08 264.009H498.938L499.023 265.247C498.509 265.416 498.022 265.501 497.565 265.501C496.535 265.501 495.906 265.078 495.706 264.262C495.191 264.713 494.562 265.05 493.819 265.275C493.075 265.501 492.275 265.613 491.388 265.613C490.101 265.613 489.015 265.36 488.186 264.881C487.328 264.403 486.899 263.587 486.899 262.433C486.899 261.561 487.27 260.857 487.985 260.323C488.7 259.788 489.701 259.45 490.988 259.281C492.075 259.141 493.447 259.056 495.106 259.056V258.409C495.106 257.959 494.877 257.621 494.419 257.368C493.962 257.115 493.247 256.974 492.303 256.974C491.074 256.974 489.787 257.255 488.471 257.846L487.928 256.439L487.985 256.467ZM483.725 255.708C483.324 255.398 482.838 255.173 482.295 255.032C481.751 254.892 481.18 254.807 480.579 254.807C479.607 254.807 478.749 255.004 478.005 255.37C477.262 255.736 476.661 256.27 476.261 257.002C475.832 257.706 475.632 258.55 475.632 259.535C475.632 260.52 475.832 261.364 476.261 262.067C476.661 262.771 477.262 263.306 478.005 263.7C478.749 264.065 479.607 264.262 480.579 264.262C481.18 264.262 481.751 264.178 482.295 264.037C482.838 263.896 483.324 263.671 483.725 263.362L484.039 261.111H485.583L485.783 264.684C484.211 265.416 482.409 265.782 480.407 265.782C478.949 265.782 477.691 265.5 476.633 264.966C475.546 264.431 474.717 263.671 474.145 262.743C473.573 261.786 473.287 260.745 473.287 259.563C473.287 258.381 473.573 257.34 474.145 256.383C474.717 255.426 475.546 254.695 476.633 254.16C477.719 253.625 478.978 253.344 480.407 253.344C482.409 253.344 484.182 253.681 485.783 254.357L485.583 257.959L484.039 257.874L483.725 255.764V255.708Z" fill="#EAE0B6"/>
<path d="M119.022 181.147C127.748 186.02 137.325 188.457 147.752 188.457C158.745 188.457 167.415 185.85 173.762 180.637C180.222 175.31 183.962 167.094 184.982 155.987C179.655 158.48 173.875 160.407 167.642 161.767C161.522 163.014 154.438 163.637 146.392 163.637C131.998 163.637 120.098 160.747 110.692 154.967C101.398 149.187 96.7518 140.46 96.7518 128.787C96.7518 114.96 101.795 104.987 111.882 98.8672C122.082 92.6338 134.775 89.5172 149.962 89.5172C167.302 89.5172 181.015 94.1638 191.102 103.457C201.302 112.637 206.402 126.407 206.402 144.767C206.402 156.894 203.738 167.264 198.412 175.877C193.198 184.377 186.115 190.837 177.162 195.257C168.322 199.564 158.518 201.717 147.752 201.717C138.685 201.717 130.468 201.094 123.102 199.847C115.848 198.714 108.992 196.844 102.532 194.237L101.342 167.377L111.882 166.697L119.022 181.147ZM186.002 142.727C185.435 128.9 182.205 118.984 176.312 112.977C170.532 106.857 161.748 103.797 149.962 103.797C138.855 103.797 130.638 105.78 125.312 109.747C119.985 113.714 117.322 119.89 117.322 128.277C117.322 135.19 119.985 140.347 125.312 143.747C130.638 147.034 138.968 148.677 150.302 148.677C157.782 148.677 164.298 148.224 169.852 147.317C175.405 146.41 180.788 144.88 186.002 142.727Z" fill="white"/>
</svg>
