<svg width="101" height="96" viewBox="0 0 101 96" fill="none" xmlns="http://www.w3.org/2000/svg">
<mask id="mask0_85_6608" style="mask-type:luminance" maskUnits="userSpaceOnUse" x="0" y="0" width="111" height="96">
<path d="M110.469 30.126L23 0L0.462308 65.4371L87.9317 95.5631L110.469 30.126Z" fill="white"/>
</mask>
<g mask="url(#mask0_85_6608)">
<mask id="mask1_85_6608" style="mask-type:luminance" maskUnits="userSpaceOnUse" x="1" y="0" width="110" height="97">
<path d="M110.682 29.5104L25 0L1.85585 67.1979L87.538 96.7083L110.682 29.5104Z" fill="white"/>
</mask>
<g mask="url(#mask1_85_6608)">
<path d="M117.297 9.41414C98.0621 41.3167 57.3695 56.8961 20.5738 51.097C-16.214 45.294 -48.3731 20.5761 -68.485 -10.7783" stroke="#FEEADA" stroke-width="0.5" stroke-miterlimit="10"/>
<path d="M35.2638 73.2849L41.4211 62.3483L45.662 54.8163C39.5758 55.2704 32.5229 55.292 24.79 54.4153L29.1707 62.3066L35.2638 73.2849Z" fill="#E7561A"/>
<path d="M47.5855 51.4081C39.7358 52.8755 31.6465 52.8987 23.7941 51.4627L23.0886 51.3326L24.801 54.4197C32.5339 55.2964 39.5888 55.2689 45.673 54.8207L47.5894 51.4161L47.5855 51.4081Z" fill="#C54B14"/>
<path d="M88.1353 61.4422L89.0289 48.9185L89.5973 40.9252C85.1034 43.369 77.6699 47.0983 71.4869 49.4917L77.9354 54.1169L88.1315 61.4342L88.1353 61.4422Z" fill="#2980A5"/>
<path d="M89.9291 36.3969C83.463 41.0771 76.1572 44.5515 68.4406 46.6159L67.7458 46.8016L71.4934 49.4937C77.6765 47.1004 85.1099 43.3711 89.6038 40.9273L89.9291 36.3969Z" fill="#FAB621"/>
<path d="M89.9291 36.3969C83.463 41.0771 76.1572 44.5515 68.4406 46.6159L67.7458 46.8016L71.4934 49.4937C77.6765 47.1004 85.1099 43.3711 89.6038 40.9273L89.9291 36.3969Z" fill="#266D8D"/>
</g>
</g>
</svg>
