<svg width="295" height="227" viewBox="0 0 295 227" fill="none" xmlns="http://www.w3.org/2000/svg">
<g clip-path="url(#clip0_79_18816)">
<mask id="mask0_79_18816" style="mask-type:luminance" maskUnits="userSpaceOnUse" x="-95" y="-91" width="411" height="297">
<path d="M315.629 29.6192L-33.2979 -90.5576L-94.0039 85.6994L254.923 205.876L315.629 29.6192Z" fill="white"/>
</mask>
<g mask="url(#mask0_79_18816)">
<mask id="mask1_79_18816" style="mask-type:luminance" maskUnits="userSpaceOnUse" x="-95" y="-91" width="411" height="297">
<path d="M315.629 29.6192L-33.2979 -90.5576L-94.0039 85.6994L254.923 205.876L315.629 29.6192Z" fill="white"/>
</mask>
<g mask="url(#mask1_79_18816)">
<path d="M315.037 29.5492C276.183 93.9898 193.988 125.459 119.663 113.745C45.3552 102.023 -19.6034 52.0955 -60.2278 -11.2379" stroke="#FEEADA" stroke-width="0.5" stroke-miterlimit="10"/>
<path d="M149.335 158.563L161.772 136.472L170.339 121.258C158.045 122.175 143.799 122.219 128.179 120.448L137.028 136.388L149.335 158.563Z" fill="#E7561A"/>
<path d="M174.226 114.373C158.37 117.337 142.03 117.384 126.169 114.484L124.744 114.221L128.203 120.456C143.823 122.227 158.073 122.172 170.363 121.266L174.234 114.389L174.226 114.373Z" fill="#C54B14"/>
<path d="M66.6358 104.456L72.6598 100.44C57.1839 95.9152 42.5947 88.5427 29.754 78.7808L28.5957 77.8989L28.8458 84.572C41.6179 92.7809 54.2823 99.316 66.6358 104.456Z" fill="#FAB621"/>
<path d="M29.5418 103.23L30.4717 128.57L51.5598 114.503L66.624 104.452C54.2705 99.3114 41.618 92.7804 28.834 84.5674L29.5257 103.238L29.5418 103.23Z" fill="#FAB621"/>
<path d="M256.133 134.641L257.938 109.345L259.086 93.1988C250.008 98.1351 234.993 105.668 222.504 110.502L235.529 119.845L256.125 134.625L256.133 134.641Z" fill="#2980A5"/>
<path d="M259.755 84.0519C246.694 93.5055 231.937 100.523 216.35 104.693L214.946 105.069L222.516 110.506C235.006 105.672 250.02 98.1392 259.098 93.203L259.755 84.0519Z" fill="#FAB621"/>
<g style="mix-blend-mode:multiply" opacity="0.32">
<mask id="mask2_79_18816" style="mask-type:luminance" maskUnits="userSpaceOnUse" x="24" y="77" width="51" height="29">
<path d="M74.9392 93.8603L28.6074 77.9028L24.4645 89.9315L70.7963 105.889L74.9392 93.8603Z" fill="white"/>
</mask>
<g mask="url(#mask2_79_18816)">
<path d="M66.6358 104.456L72.6598 100.44C57.1839 95.9152 42.5947 88.5427 29.754 78.7808L28.5957 77.8989L28.8458 84.572C41.6179 92.7809 54.2823 99.316 66.6358 104.456Z" fill="#F28A26"/>
</g>
</g>
<path d="M259.755 84.0519C246.694 93.5055 231.937 100.523 216.35 104.693L214.946 105.069L222.516 110.506C235.006 105.672 250.02 98.1392 259.098 93.203L259.755 84.0519Z" fill="#266D8D"/>
</g>
</g>
</g>
<defs>
<clipPath id="clip0_79_18816">
<rect width="261.391" height="166.639" fill="white" transform="translate(42) rotate(14.5613)"/>
</clipPath>
</defs>
</svg>
