<svg width="108" height="103" viewBox="0 0 108 103" fill="none" xmlns="http://www.w3.org/2000/svg">
<mask id="mask0_84_6348" style="mask-type:luminance" maskUnits="userSpaceOnUse" x="-52" y="-39" width="160" height="133">
<path d="M107.117 6.08405L-21.8369 -38.3301L-51.8907 48.9295L77.0635 93.3436L107.117 6.08405Z" fill="white"/>
</mask>
<g mask="url(#mask0_84_6348)">
<mask id="mask1_84_6348" style="mask-type:luminance" maskUnits="userSpaceOnUse" x="-52" y="-39" width="203" height="148">
<path d="M150.907 21.1659L-21.8369 -38.3301L-51.8907 48.9295L120.853 108.425L150.907 21.1659Z" fill="white"/>
</mask>
<g mask="url(#mask1_84_6348)">
<path d="M150.613 21.1312C131.378 53.0338 90.6849 68.6132 53.8892 62.8141C17.1014 57.011 -15.0576 32.2932 -35.1696 0.938718" stroke="#FEEADA" stroke-width="0.5" stroke-miterlimit="10"/>
<path d="M68.5792 85.0019L74.7365 74.0653L78.9775 66.5334C72.8912 66.9875 65.8383 67.0091 58.1054 66.1323L62.4861 74.0236L68.5792 85.0019Z" fill="#E7561A"/>
<path d="M80.9009 63.1252C73.0513 64.5925 64.9619 64.6158 57.1095 63.1798L56.404 63.0497L58.1164 66.1367C65.8493 67.0135 72.9042 66.9859 78.9885 66.5378L80.9048 63.1331L80.9009 63.1252Z" fill="#C54B14"/>
<path d="M27.6362 58.2153L30.6186 56.2272C22.9569 53.9869 15.7342 50.337 9.37714 45.5042L8.80371 45.0676L8.92755 48.3713C15.2506 52.4352 21.5204 55.6706 27.6362 58.2153Z" fill="#FAB621"/>
<path d="M9.2723 57.6087L9.73264 70.1537L20.1728 63.1894L27.6306 58.2132C21.5147 55.6685 15.2509 52.4352 8.92188 48.3691L9.26432 57.6126L9.2723 57.6087Z" fill="#FAB621"/>
<path d="M121.451 73.1592L122.344 60.6355L122.913 52.6423C118.419 55.0861 110.985 58.8154 104.802 61.2087L111.251 65.8339L121.447 73.1512L121.451 73.1592Z" fill="#2980A5"/>
<path d="M123.244 48.1139C116.778 52.7941 109.473 56.2685 101.756 58.3329L101.061 58.5187L104.809 61.2108C110.992 58.8175 118.425 55.0881 122.919 52.6444L123.244 48.1139Z" fill="#FAB621"/>
<g style="mix-blend-mode:multiply" opacity="0.32">
<mask id="mask2_84_6348" style="mask-type:luminance" maskUnits="userSpaceOnUse" x="6" y="45" width="26" height="14">
<path d="M31.7471 52.9699L8.80957 45.0698L6.75855 51.0249L29.696 58.925L31.7471 52.9699Z" fill="white"/>
</mask>
<g mask="url(#mask2_84_6348)">
<path d="M27.6362 58.2156L30.6186 56.2275C22.9569 53.9872 15.7342 50.3373 9.37714 45.5045L8.80371 45.0679L8.92755 48.3715C15.2506 52.4355 21.5204 55.6708 27.6362 58.2156Z" fill="#F28A26"/>
</g>
</g>
<path d="M123.244 48.1139C116.778 52.7941 109.473 56.2685 101.756 58.3329L101.061 58.5187L104.809 61.2108C110.992 58.8175 118.425 55.0881 122.919 52.6444L123.244 48.1139Z" fill="#266D8D"/>
</g>
</g>
</svg>
