<svg width="137" height="137" viewBox="0 0 137 137" fill="none" xmlns="http://www.w3.org/2000/svg">
<rect width="137" height="137" rx="12" fill="white"/>
<g clip-path="url(#clip0_204_1906)">
<rect x="28.5" y="39.5" width="44" height="59" rx="5.5" fill="white" stroke="#1F50B8"/>
<mask id="path-3-inside-1_204_1906" fill="white">
<path fill-rule="evenodd" clip-rule="evenodd" d="M80.9124 53H93.0888L94.0213 57.8434C94.309 57.9548 94.5935 58.0728 94.8745 58.1972L98.9589 55.4315L107.569 64.0416L104.803 68.1259C104.928 68.407 105.046 68.6916 105.157 68.9795L110 69.9118V82.0883L105.157 83.0205C105.046 83.3086 104.928 83.5934 104.803 83.8746L107.568 87.9584L98.9584 96.5684L94.8744 93.803C94.5934 93.9275 94.309 94.0455 94.0212 94.1568L93.0888 99H80.9124L79.98 94.1568C79.692 94.0454 79.4073 93.9273 79.1261 93.8027L75.0416 96.5684L66.4315 87.9584L69.1975 83.8735C69.0731 83.5927 68.9552 83.3084 68.8439 83.0208L64 82.0883V69.9118L68.844 68.9793C68.9552 68.6918 69.0731 68.4076 69.1974 68.1269L66.4311 64.0416L75.0411 55.4315L79.126 58.1975C79.4072 58.073 79.6919 57.9549 79.9799 57.8434L80.9124 53Z"/>
</mask>
<path fill-rule="evenodd" clip-rule="evenodd" d="M80.9124 53H93.0888L94.0213 57.8434C94.309 57.9548 94.5935 58.0728 94.8745 58.1972L98.9589 55.4315L107.569 64.0416L104.803 68.1259C104.928 68.407 105.046 68.6916 105.157 68.9795L110 69.9118V82.0883L105.157 83.0205C105.046 83.3086 104.928 83.5934 104.803 83.8746L107.568 87.9584L98.9584 96.5684L94.8744 93.803C94.5934 93.9275 94.309 94.0455 94.0212 94.1568L93.0888 99H80.9124L79.98 94.1568C79.692 94.0454 79.4073 93.9273 79.1261 93.8027L75.0416 96.5684L66.4315 87.9584L69.1975 83.8735C69.0731 83.5927 68.9552 83.3084 68.8439 83.0208L64 82.0883V69.9118L68.844 68.9793C68.9552 68.6918 69.0731 68.4076 69.1974 68.1269L66.4311 64.0416L75.0411 55.4315L79.126 58.1975C79.4072 58.073 79.6919 57.9549 79.9799 57.8434L80.9124 53Z" fill="white"/>
<path d="M93.0888 53L94.0708 52.811L93.9147 52H93.0888V53ZM80.9124 53V52H80.0865L79.9304 52.811L80.9124 53ZM94.0213 57.8434L93.0393 58.0325L93.144 58.5762L93.6604 58.776L94.0213 57.8434ZM94.8745 58.1972L94.4695 59.1115L94.9762 59.336L95.4351 59.0252L94.8745 58.1972ZM98.9589 55.4315L99.666 54.7244L99.082 54.1405L98.3982 54.6035L98.9589 55.4315ZM107.569 64.0416L108.397 64.6023L108.86 63.9184L108.276 63.3345L107.569 64.0416ZM104.803 68.1259L103.975 67.5652L103.665 68.0241L103.889 68.5309L104.803 68.1259ZM105.157 68.9795L104.225 69.3404L104.425 69.8568L104.968 69.9615L105.157 68.9795ZM110 69.9118H111V69.086L110.189 68.9298L110 69.9118ZM110 82.0883L110.189 83.0703L111 82.9141V82.0883H110ZM105.157 83.0205L104.968 82.0386L104.425 82.1433L104.225 82.6597L105.157 83.0205ZM104.803 83.8746L103.889 83.4696L103.664 83.9763L103.975 84.4353L104.803 83.8746ZM107.568 87.9584L108.276 88.6655L108.86 88.0815L108.397 87.3977L107.568 87.9584ZM98.9584 96.5684L98.3977 97.3965L99.0816 97.8595L99.6655 97.2755L98.9584 96.5684ZM94.8744 93.803L95.4351 92.975L94.9762 92.6643L94.4694 92.8887L94.8744 93.803ZM94.0212 94.1568L93.6604 93.2242L93.1439 93.424L93.0392 93.9678L94.0212 94.1568ZM93.0888 99V100H93.9147L94.0708 99.189L93.0888 99ZM80.9124 99L79.9304 99.189L80.0865 100H80.9124V99ZM79.98 94.1568L80.962 93.9678L80.8573 93.424L80.3408 93.2242L79.98 94.1568ZM79.1261 93.8027L79.5311 92.8884L79.0243 92.6639L78.5654 92.9747L79.1261 93.8027ZM75.0416 96.5684L74.3345 97.2755L74.9184 97.8595L75.6023 97.3965L75.0416 96.5684ZM66.4315 87.9584L65.6035 87.3977L65.1405 88.0815L65.7244 88.6655L66.4315 87.9584ZM69.1975 83.8735L70.0255 84.4342L70.3363 83.9753L70.1118 83.4686L69.1975 83.8735ZM68.8439 83.0208L69.7765 82.6599L69.5767 82.1435L69.033 82.0388L68.8439 83.0208ZM64 82.0883H63V82.9141L63.811 83.0703L64 82.0883ZM64 69.9118L63.811 68.9298L63 69.086V69.9118H64ZM68.844 68.9793L69.033 69.9613L69.5768 69.8566L69.7766 69.3402L68.844 68.9793ZM69.1974 68.1269L70.1117 68.5319L70.3362 68.0252L70.0254 67.5663L69.1974 68.1269ZM66.4311 64.0416L65.724 63.3345L65.14 63.9184L65.603 64.6023L66.4311 64.0416ZM75.0411 55.4315L75.6018 54.6035L74.918 54.1405L74.334 54.7244L75.0411 55.4315ZM79.126 58.1975L78.5653 59.0256L79.0243 59.3363L79.531 59.1118L79.126 58.1975ZM79.9799 57.8434L80.3408 58.776L80.8572 58.5762L80.9619 58.0325L79.9799 57.8434ZM93.0888 52H80.9124V54H93.0888V52ZM95.0032 57.6544L94.0708 52.811L92.1069 53.189L93.0393 58.0325L95.0032 57.6544ZM95.2794 57.2829C94.984 57.152 94.6848 57.0279 94.3821 56.9108L93.6604 58.776C93.9333 58.8816 94.203 58.9935 94.4695 59.1115L95.2794 57.2829ZM98.3982 54.6035L94.3138 57.3692L95.4351 59.0252L99.5196 56.2596L98.3982 54.6035ZM108.276 63.3345L99.666 54.7244L98.2518 56.1386L106.862 64.7487L108.276 63.3345ZM105.631 68.6865L108.397 64.6023L106.741 63.4809L103.975 67.5652L105.631 68.6865ZM106.09 68.6187C105.973 68.3158 105.849 68.0165 105.718 67.7209L103.889 68.5309C104.007 68.7975 104.119 69.0674 104.225 69.3404L106.09 68.6187ZM110.189 68.9298L105.346 67.9976L104.968 69.9615L109.811 70.8938L110.189 68.9298ZM111 82.0883V69.9118H109V82.0883H111ZM105.346 84.0025L110.189 83.0703L109.811 81.1063L104.968 82.0386L105.346 84.0025ZM105.718 84.2796C105.849 83.9838 105.973 83.6844 106.09 83.3814L104.225 82.6597C104.119 82.9329 104.007 83.2029 103.889 83.4696L105.718 84.2796ZM108.397 87.3977L105.631 83.3139L103.975 84.4353L106.74 88.5191L108.397 87.3977ZM99.6655 97.2755L108.276 88.6655L106.861 87.2513L98.2513 95.8613L99.6655 97.2755ZM94.3137 94.6311L98.3977 97.3965L99.5191 95.7404L95.4351 92.975L94.3137 94.6311ZM94.3821 95.0895C94.6847 94.9723 94.9839 94.8482 95.2794 94.7174L94.4694 92.8887C94.203 93.0067 93.9332 93.1186 93.6604 93.2242L94.3821 95.0895ZM94.0708 99.189L95.0032 94.3459L93.0392 93.9678L92.1069 98.811L94.0708 99.189ZM80.9124 100H93.0888V98H80.9124V100ZM78.998 94.3459L79.9304 99.189L81.8943 98.811L80.962 93.9678L78.998 94.3459ZM78.721 94.717C79.0168 94.848 79.3162 94.9722 79.6191 95.0895L80.3408 93.2242C80.0677 93.1185 79.7978 93.0065 79.5311 92.8884L78.721 94.717ZM75.6023 97.3965L79.6867 94.6308L78.5654 92.9747L74.4809 95.7404L75.6023 97.3965ZM65.7244 88.6655L74.3345 97.2755L75.7487 95.8613L67.1386 87.2513L65.7244 88.6655ZM68.3695 83.3128L65.6035 87.3977L67.2596 88.5191L70.0255 84.4342L68.3695 83.3128ZM67.9113 83.3817C68.0283 83.6842 68.1524 83.9832 68.2832 84.2785L70.1118 83.4686C69.9939 83.2023 69.8821 82.9327 69.7765 82.6599L67.9113 83.3817ZM63.811 83.0703L68.6549 84.0028L69.033 82.0388L64.189 81.1063L63.811 83.0703ZM63 69.9118V82.0883H65V69.9118H63ZM68.6549 67.9973L63.811 68.9298L64.189 70.8938L69.033 69.9613L68.6549 67.9973ZM68.283 67.722C68.1523 68.0172 68.0283 68.3161 67.9114 68.6184L69.7766 69.3402C69.8821 69.0676 69.9938 68.7981 70.1117 68.5319L68.283 67.722ZM65.603 64.6023L68.3694 68.6876L70.0254 67.5663L67.2591 63.4809L65.603 64.6023ZM74.334 54.7244L65.724 63.3345L67.1382 64.7487L75.7482 56.1386L74.334 54.7244ZM79.6867 57.3695L75.6018 54.6035L74.4805 56.2596L78.5653 59.0256L79.6867 57.3695ZM79.6191 56.9108C79.3162 57.028 79.0167 57.1522 78.721 57.2832L79.531 59.1118C79.7977 58.9937 80.0677 58.8817 80.3408 58.776L79.6191 56.9108ZM79.9304 52.811L78.998 57.6544L80.9619 58.0325L81.8943 53.189L79.9304 52.811Z" fill="#1F50B8" mask="url(#path-3-inside-1_204_1906)"/>
<line x1="38" y1="53.5" x2="64" y2="53.5" stroke="#1F50B8"/>
<line x1="38" y1="60.5" x2="51" y2="60.5" stroke="#1F50B8"/>
<line x1="38" y1="87.5" x2="51" y2="87.5" stroke="#1F50B8"/>
<circle cx="87" cy="76" r="13.5" stroke="#1F50B8"/>
<path d="M82 76L85.7813 80L93 72" stroke="#1F50B8"/>
</g>
<defs>
<clipPath id="clip0_204_1906">
<rect width="82" height="60" fill="white" transform="translate(28 39)"/>
</clipPath>
</defs>
</svg>
