<svg width="725" height="474" viewBox="0 0 725 474" fill="none" xmlns="http://www.w3.org/2000/svg">
<mask id="mask0_79_18932" style="mask-type:luminance" maskUnits="userSpaceOnUse" x="-2" y="0" width="727" height="474">
<path d="M725 0H-2V474H725V0Z" fill="white"/>
</mask>
<g mask="url(#mask0_79_18932)">
<path d="M723.517 0.323242C683.483 187.343 512 331.002 323.691 364.369C135.414 397.705 -62.0177 331.485 -212.065 212.909" stroke="#FEEADA" stroke-width="0.647372" stroke-miterlimit="10"/>
<path d="M432.092 447.514L443.696 384.131L451.69 340.479C422.906 352.859 388.706 364.756 349.703 373.428L384.161 404.41L432.092 447.514Z" fill="#FAB621"/>
<path d="M455.333 320.718C419.682 340.964 380.454 354.601 339.936 360.759L336.294 361.307L349.768 373.429C388.77 364.757 422.97 352.828 451.755 340.48L455.365 320.75L455.333 320.718Z" fill="#F28A26"/>
<path d="M188.567 385.938L199.72 371.301C158.783 373.235 117.621 367.593 78.6824 354.762L75.1689 353.602L81.2933 369.431C118.781 378.587 154.625 383.81 188.567 385.938Z" fill="#FAB621"/>
<path d="M98.4091 413.695L121.617 473.822L160.652 422.561L188.534 385.937C154.592 383.809 118.781 378.587 81.2607 369.431L98.3768 413.727L98.4091 413.695Z" fill="#FAB621"/>
<path d="M668.945 301.632L652.345 239.346L641.74 199.595C624.011 218.971 594.163 249.501 568.15 271.456L607.185 283.127L668.913 301.6L668.945 301.632Z" fill="#2980A5"/>
<path d="M635.777 177.06C612.214 210.588 582.559 239.668 548.552 262.59L545.49 264.654L568.183 271.456C594.195 249.501 624.044 218.971 641.772 199.595L635.777 177.06Z" fill="#FAB621"/>
<g style="mix-blend-mode:multiply" opacity="0.32">
<mask id="mask1_79_18932" style="mask-type:luminance" maskUnits="userSpaceOnUse" x="75" y="353" width="125" height="33">
<path d="M199.752 353.602H75.2012V385.938H199.752V353.602Z" fill="white"/>
</mask>
<g mask="url(#mask1_79_18932)">
<path d="M188.567 385.938L199.72 371.301C158.783 373.235 117.621 367.593 78.6824 354.762L75.1689 353.602L81.2933 369.431C118.781 378.587 154.625 383.81 188.567 385.938Z" fill="#F28A26"/>
</g>
</g>
<path d="M635.777 177.06C612.214 210.588 582.559 239.668 548.552 262.59L545.49 264.654L568.183 271.456C594.195 249.501 624.044 218.971 641.772 199.595L635.777 177.06Z" fill="#266D8D"/>
</g>
</svg>
