<svg width="638" height="544" viewBox="0 0 638 544" fill="none" xmlns="http://www.w3.org/2000/svg">
<mask id="mask0_79_12576" style="mask-type:luminance" maskUnits="userSpaceOnUse" x="0" y="0" width="683" height="544">
<path d="M47.3199 0.369514L682.401 62.665L635.244 543.418L0.162563 481.123L47.3199 0.369514Z" fill="white"/>
</mask>
<g mask="url(#mask0_79_12576)">
<mask id="mask1_79_12576" style="mask-type:luminance" maskUnits="userSpaceOnUse" x="-24" y="-3" width="999" height="576">
<path d="M23.1599 -2.00166L974.884 91.3535L927.726 572.107L-23.9974 478.752L23.1599 -2.00166Z" fill="white"/>
</mask>
<g mask="url(#mask1_79_12576)">
<path d="M24.6314 -1.52765C46.638 192.213 206.332 355.04 394.076 407.638C581.79 460.199 788.7 412.66 952.745 307.283" stroke="#FEEADA" stroke-width="0.659996" stroke-miterlimit="10"/>
<path d="M275.813 481.21L270.347 415.745L266.581 370.659C294.555 386.085 328.071 401.559 366.781 414.24L328.736 442.246L275.813 481.21Z" fill="#E7561A"/>
<path d="M264.852 350.245C299.009 374.336 337.454 392.077 377.952 402.357L381.593 403.276L366.716 414.234C328.006 401.553 294.493 386.046 266.516 370.653L264.816 350.275L264.852 350.245Z" fill="#C54B14"/>
<path d="M529.029 442.969L519.17 427.009C560.513 433.046 602.839 431.418 643.624 422.274L647.305 421.446L639.515 436.898C600.568 442.457 563.68 444.189 529.029 442.969Z" fill="#FAB621"/>
<path d="M617.743 480.107L588.211 538.803L553.707 482.908L529.062 442.973C563.712 444.192 600.568 442.457 639.548 436.901L617.773 480.143L617.743 480.107Z" fill="#FAB621"/>
<path d="M50.0128 309.621L73.0551 248.075L87.7713 208.798C103.831 230.222 131.077 264.17 155.285 289.035L114.518 296.991L50.0486 309.591L50.0128 309.621Z" fill="#2980A5"/>
<path d="M96.0653 186.527C116.636 222.891 143.831 255.348 176.053 281.99L178.955 284.388L155.253 289.032C131.045 264.167 103.799 230.219 87.7393 208.795L96.0653 186.527Z" fill="#FAB621"/>
<g style="mix-blend-mode:multiply" opacity="0.32">
<mask id="mask2_79_12576" style="mask-type:luminance" maskUnits="userSpaceOnUse" x="517" y="409" width="131" height="46">
<path d="M520.899 409.047L647.272 421.443L644.054 454.252L517.681 441.856L520.899 409.047Z" fill="white"/>
</mask>
<g mask="url(#mask2_79_12576)">
<path d="M529.03 442.968L519.171 427.008C560.514 433.045 602.84 431.417 643.625 422.273L647.306 421.445L639.516 436.897C600.569 442.456 563.681 444.188 529.03 442.968Z" fill="#F28A26"/>
</g>
</g>
<path d="M96.0653 186.527C116.636 222.891 143.831 255.348 176.053 281.99L178.955 284.388L155.253 289.032C131.045 264.167 103.799 230.219 87.7393 208.795L96.0653 186.527Z" fill="#266D8D"/>
</g>
</g>
</svg>
