<svg width="238" height="512" viewBox="0 0 238 512" fill="none" xmlns="http://www.w3.org/2000/svg">
<mask id="mask0_79_18779" style="mask-type:luminance" maskUnits="userSpaceOnUse" x="0" y="0" width="238" height="512">
<path d="M237.04 0.652588H0V511.948H237.04V0.652588Z" fill="white"/>
</mask>
<g mask="url(#mask0_79_18779)">
<path fill-rule="evenodd" clip-rule="evenodd" d="M237.04 253.229V393.83C237.04 458.802 183.713 511.948 118.52 511.948C53.3272 511.948 0 458.779 0 393.83V118.771C0 53.8218 53.3272 0.652588 118.52 0.652588C183.713 0.652588 237.04 53.7989 237.04 118.771V253.229ZM218.506 122.369C218.506 156.035 201.742 185.805 176.102 203.841C174.676 204.85 172.514 205.835 169.64 204.941C153.888 200.06 136.641 197.356 118.52 197.356C100.4 197.356 83.2447 200.06 67.5156 204.896C64.6641 205.767 62.4105 204.85 61.0538 203.91C35.3675 185.874 18.5346 156.081 18.5346 122.369C18.5346 67.3204 63.3073 22.7224 118.52 22.7224C173.733 22.7224 218.506 67.3433 218.506 122.369Z" fill="#7E4312"/>
<path fill-rule="evenodd" clip-rule="evenodd" d="M222.875 122.369C222.875 156.31 206.364 187.868 178.608 207.394C175.526 209.571 172.123 209.594 168.329 209.09C136.549 205.01 100.606 204.483 68.8262 209.067C65.1468 209.594 61.5825 209.594 58.547 207.462C30.7452 187.936 14.1882 156.356 14.1882 122.369C14.1652 64.9368 60.8926 18.368 118.52 18.368C176.147 18.368 222.875 64.9368 222.875 122.369ZM233.338 393.853V118.771C233.338 55.8385 181.666 4.34229 118.52 4.34229C55.3736 4.34229 3.70215 55.8614 3.70215 118.771V393.83C3.70215 456.762 55.3736 508.258 118.52 508.258C181.666 508.258 233.338 456.762 233.338 393.83" fill="#E7561A"/>
</g>
</svg>
